<svg width="221" height="72" viewBox="0 0 221 72" fill="none" xmlns="http://www.w3.org/2000/svg">
<g clip-path="url(#clip0_623_487)">
<path d="M47.4749 42.4749C48.8417 41.108 48.8417 38.892 47.4749 37.5251C46.108 36.1583 43.892 36.1583 42.5251 37.5251L36.5251 43.5251C35.1583 44.892 35.1583 47.108 36.5251 48.4749L42.5251 54.4749C43.892 55.8417 46.108 55.8417 47.4749 54.4749C48.8417 53.108 48.8417 50.892 47.4749 49.5251L47.4497 49.5L56.6667 49.5C57.9553 49.5 59 50.5447 59 51.8333C59 56.3437 55.3437 60 50.8333 60H24.5C17.5964 60 12 54.4036 12 47.5V46C12 44.067 10.433 42.5 8.5 42.5C6.56701 42.5 5 44.067 5 46V47.5C5 58.2695 13.7304 67 24.5 67L50.8333 67C59.2096 67 66 60.2096 66 51.8333C66 46.6787 61.8213 42.5 56.6667 42.5L47.4497 42.5L47.4749 42.4749Z" fill="#004EDB"/>
<path d="M46.5 13C53.4036 13 59 18.5964 59 25.5V27C59 28.933 60.567 30.5 62.5 30.5C64.433 30.5 66 28.933 66 27V25.5C66 14.7304 57.2696 6 46.5 6L20.1667 6C11.7903 6 5 12.7903 5 21.1667C5 26.3213 9.17868 30.5 14.3333 30.5H24.5503L24.5252 30.5251C23.1584 31.892 23.1584 34.108 24.5252 35.4749C25.892 36.8417 28.1081 36.8417 29.4749 35.4749L35.4749 29.4749C36.1643 28.7855 36.5349 27.8399 36.4975 26.8657C36.4601 25.8915 36.018 24.9771 35.2778 24.3426L28.2778 18.3426C26.8102 17.0846 24.6006 17.2546 23.3427 18.7222C22.1356 20.1304 22.2432 22.2217 23.5504 23.5L14.3333 23.5C13.0447 23.5 12 22.4553 12 21.1667C12 16.6563 15.6563 13 20.1667 13L46.5 13Z" fill="#004EDB"/>
<circle cx="45" cy="27" r="7" fill="#0066FF"/>
<circle cx="26" cy="46" r="7" fill="#66AFFF"/>
<rect x="38" y="20" width="14" height="14" rx="4" fill="#0066FF"/>
</g>
<path d="M95.144 29.336C94.568 26.564 92.264 23 86.504 23C81.788 23 78.08 26.6 78.08 30.596C78.08 34.412 80.672 36.788 84.308 37.58L87.944 38.372C90.5 38.912 91.76 40.496 91.76 42.332C91.76 44.564 90.032 46.4 86.504 46.4C82.652 46.4 80.636 43.772 80.384 40.928L77 42.008C77.468 45.644 80.384 49.604 86.54 49.604C91.976 49.604 95.36 46.004 95.36 42.044C95.36 38.48 92.984 35.816 88.736 34.88L84.92 34.052C82.76 33.584 81.644 32.18 81.644 30.344C81.644 27.968 83.696 26.096 86.576 26.096C90.14 26.096 91.688 28.616 91.976 30.452L95.144 29.336Z" fill="black"/>
<path d="M98.4161 36.284C98.4161 44.816 104.824 49.604 111.232 49.604C113.572 49.604 115.912 48.992 117.928 47.768L121.024 51.188L123.436 49.064L120.448 45.716C122.608 43.484 124.048 40.316 124.048 36.284C124.048 27.752 117.64 23 111.232 23C104.824 23 98.4161 27.752 98.4161 36.284ZM102.016 36.284C102.016 29.624 106.48 26.24 111.232 26.24C115.984 26.24 120.448 29.624 120.448 36.284C120.448 39.236 119.548 41.54 118.18 43.196L113.716 38.156L111.268 40.28L115.696 45.248C114.328 46.004 112.816 46.364 111.232 46.364C106.48 46.364 102.016 42.944 102.016 36.284Z" fill="black"/>
<path d="M144.487 49.064V45.752H132.427V23.54H128.899V49.064H144.487Z" fill="black"/>
<path d="M174.544 49.064V35.42H161.548V40.244H169.216C168.892 41.684 167.128 44.42 162.916 44.42C158.776 44.42 155.248 41.648 155.248 36.32C155.248 30.632 159.316 28.328 162.772 28.328C167.02 28.328 168.712 31.208 169.108 32.792L174.58 30.884C173.464 27.32 170.08 23 162.772 23C155.572 23 149.488 28.292 149.488 36.32C149.488 44.384 155.32 49.604 162.412 49.604C166.048 49.604 168.46 48.092 169.576 46.472L169.936 49.064H174.544Z" fill="black"/>
<path d="M184.447 49.064V23H178.975V49.064H184.447Z" fill="black"/>
<path d="M197.484 44.564C195.432 44.564 193.452 43.088 193.452 40.1C193.452 37.076 195.432 35.672 197.484 35.672C199.572 35.672 201.516 37.076 201.516 40.1C201.516 43.124 199.572 44.564 197.484 44.564ZM197.484 30.632C192.156 30.632 187.98 34.556 187.98 40.1C187.98 45.644 192.156 49.604 197.484 49.604C202.848 49.604 206.988 45.644 206.988 40.1C206.988 34.556 202.848 30.632 197.484 30.632Z" fill="black"/>
<path d="M217.027 25.952H212.131V28.256C212.131 29.912 211.231 31.172 209.359 31.172H208.459V35.96H211.627V43.628C211.627 47.192 213.895 49.388 217.603 49.388C219.331 49.388 220.231 48.992 220.447 48.884V44.348C220.123 44.42 219.583 44.528 219.007 44.528C217.819 44.528 217.027 44.132 217.027 42.656V35.96H220.519V31.172H217.027V25.952Z" fill="black"/>
<defs>
<clipPath id="clip0_623_487">
<rect width="72" height="72" fill="white"/>
</clipPath>
</defs>
</svg>